<svg width="119" height="159" viewBox="0 0 119 159" fill="none" xmlns="http://www.w3.org/2000/svg">
<path d="M10.5227 150V120.909H14.0455V146.875H27.5682V150H10.5227ZM38.9886 150.511C37.6061 150.511 36.3513 150.251 35.2244 149.73C34.0975 149.2 33.2027 148.438 32.5398 147.443C31.8769 146.439 31.5455 145.227 31.5455 143.807C31.5455 142.557 31.7917 141.544 32.2841 140.767C32.7765 139.981 33.4347 139.366 34.2585 138.92C35.0824 138.475 35.9915 138.144 36.9858 137.926C37.9896 137.699 38.9981 137.519 40.0114 137.386C41.3371 137.216 42.4119 137.088 43.2358 137.003C44.0691 136.908 44.6752 136.752 45.054 136.534C45.4422 136.316 45.6364 135.937 45.6364 135.398V135.284C45.6364 133.883 45.2528 132.794 44.4858 132.017C43.7282 131.241 42.5777 130.852 41.0341 130.852C39.4337 130.852 38.179 131.203 37.2699 131.903C36.3608 132.604 35.7216 133.352 35.3523 134.148L32.1705 133.011C32.7386 131.686 33.4962 130.653 34.4432 129.915C35.3996 129.167 36.4413 128.646 37.5682 128.352C38.7045 128.049 39.822 127.898 40.9205 127.898C41.6212 127.898 42.4261 127.983 43.3352 128.153C44.2538 128.314 45.1392 128.651 45.9915 129.162C46.8532 129.673 47.5682 130.445 48.1364 131.477C48.7045 132.509 48.9886 133.892 48.9886 135.625V150H45.6364V147.045H45.4659C45.2386 147.519 44.8598 148.026 44.3295 148.565C43.7992 149.105 43.0938 149.564 42.2131 149.943C41.3324 150.322 40.2576 150.511 38.9886 150.511ZM39.5 147.5C40.8258 147.5 41.9432 147.24 42.8523 146.719C43.7708 146.198 44.4621 145.526 44.9261 144.702C45.3996 143.878 45.6364 143.011 45.6364 142.102V139.034C45.4943 139.205 45.1818 139.361 44.6989 139.503C44.2254 139.635 43.6761 139.754 43.0511 139.858C42.4356 139.953 41.8343 140.038 41.2472 140.114C40.6695 140.18 40.2008 140.237 39.8409 140.284C38.9697 140.398 38.1553 140.582 37.3977 140.838C36.6496 141.084 36.0436 141.458 35.5795 141.96C35.125 142.453 34.8977 143.125 34.8977 143.977C34.8977 145.142 35.3286 146.023 36.1903 146.619C37.0616 147.206 38.1648 147.5 39.5 147.5ZM54.4822 150V147.443L66.8686 131.534V131.307H54.88V128.182H71.1868V130.852L59.1413 146.648V146.875H71.5845V150H54.4822ZM85.2706 150.455C83.1683 150.455 81.3549 149.991 79.8303 149.062C78.3151 148.125 77.1456 146.818 76.3217 145.142C75.5073 143.456 75.1001 141.496 75.1001 139.261C75.1001 137.027 75.5073 135.057 76.3217 133.352C77.1456 131.638 78.2914 130.303 79.7592 129.347C81.2365 128.381 82.96 127.898 84.9297 127.898C86.0661 127.898 87.1882 128.087 88.2962 128.466C89.4041 128.845 90.4126 129.46 91.3217 130.312C92.2308 131.155 92.9553 132.273 93.495 133.665C94.0348 135.057 94.3047 136.771 94.3047 138.807V140.227H77.4865V137.33H90.8956C90.8956 136.098 90.6494 135 90.157 134.034C89.674 133.068 88.9827 132.306 88.0831 131.747C87.1929 131.188 86.1418 130.909 84.9297 130.909C83.5945 130.909 82.4392 131.241 81.4638 131.903C80.4979 132.557 79.7545 133.409 79.2337 134.46C78.7128 135.511 78.4524 136.638 78.4524 137.841V139.773C78.4524 141.42 78.7365 142.817 79.3047 143.963C79.8823 145.099 80.6825 145.966 81.7053 146.562C82.728 147.15 83.9164 147.443 85.2706 147.443C86.1513 147.443 86.9467 147.32 87.657 147.074C88.3767 146.818 88.9969 146.439 89.5178 145.938C90.0386 145.426 90.4411 144.792 90.7251 144.034L93.9638 144.943C93.6229 146.042 93.05 147.008 92.245 147.841C91.4401 148.665 90.4458 149.309 89.2621 149.773C88.0784 150.227 86.7479 150.455 85.2706 150.455ZM99.4041 150V128.182H102.643V131.477H102.87C103.268 130.398 103.987 129.522 105.029 128.849C106.071 128.177 107.245 127.841 108.552 127.841C108.798 127.841 109.106 127.846 109.475 127.855C109.844 127.865 110.124 127.879 110.313 127.898V131.307C110.2 131.278 109.939 131.236 109.532 131.179C109.134 131.113 108.713 131.08 108.268 131.08C107.207 131.08 106.26 131.302 105.427 131.747C104.603 132.183 103.95 132.789 103.467 133.565C102.993 134.332 102.756 135.208 102.756 136.193V150H99.4041Z" fill="#E6AC00"/>
<path d="M65.9194 4.44001C65.564 4.44111 65.2133 4.51646 64.8931 4.66052C64.573 4.80458 64.2915 5.0137 64.0693 5.27251C63.4558 5.98788 62.6393 6.43888 61.8799 6.43888C61.6948 6.43888 61.0263 6.27228 60.8201 6.14403C60.3623 5.85946 59.8129 5.7316 59.2655 5.78219C58.718 5.83278 58.2062 6.05871 57.8172 6.42153C57.0754 7.11343 56.4596 7.94085 55.9485 8.83231C55.5015 8.15089 54.9551 7.50934 54.2751 6.95052C52.7018 5.50864 50.737 4.689 48.697 4.50071C46.6314 4.31007 44.5021 4.74209 42.6586 5.74513C42.242 5.97198 41.9092 6.31154 41.7041 6.71884C41.4991 7.12613 41.4315 7.58193 41.5105 8.02583C41.6568 8.8449 41.5021 9.60331 40.9852 10.0854C40.7897 10.2678 40.4479 10.498 39.9486 10.6144C39.4828 10.7229 39.063 10.9603 38.7445 11.2953C38.4259 11.6304 38.2234 12.0475 38.1636 12.4918C37.8634 14.7317 38.2967 17.2855 39.6464 19.5334C39.5603 19.502 39.4481 19.4939 39.4001 19.464C38.9423 19.1795 38.3929 19.0516 37.8455 19.1022C37.298 19.1528 36.7862 19.3787 36.3972 19.7415C34.5952 21.4224 33.3199 23.7631 33.3199 26.4189C33.3199 28.4521 33.6744 30.0368 34.1566 31.2665C33.9664 31.1211 33.791 30.954 33.636 30.7375C33.0981 29.9915 32.1406 29.6058 31.1909 29.7922C29.475 30.1119 28.2348 30.9753 27.1329 31.7434C26.5307 32.163 26.1799 32.8196 26.1799 33.5211V33.9677C26.1799 34.929 25.3502 35.5865 24.8551 35.8929C24.1959 36.3058 23.7999 36.9985 23.7999 37.74V38.4077C23.7999 38.7874 23.8315 39.1474 23.8743 39.5004C25.5736 38.5946 27.4871 37.9937 29.5268 37.805C30.2789 36.8704 30.753 35.8087 30.8934 34.6832C30.9315 34.6588 30.9692 34.6403 31.0096 34.6181C32.2853 35.6416 33.8959 36.1877 35.6999 36.1877C35.9522 36.1877 36.2052 36.1602 36.4623 36.1314C35.9863 36.5465 35.6999 37.1206 35.6999 37.74V38.4077C35.6999 38.4566 35.7092 38.502 35.7092 38.5508C36.5256 38.8261 37.3278 39.1438 38.0799 39.5568C38.9534 39.0795 39.8866 38.7181 40.8457 38.4251C41.8873 37.3959 42.5605 36.1663 42.7655 34.8436C42.9262 34.839 43.0933 34.8452 43.249 34.8306C44.8765 35.9906 47.0248 36.5172 49.2362 35.9926C49.7217 36.7474 49.9799 37.5752 49.9799 38.4077C49.9799 38.4499 49.9567 38.4956 49.9567 38.5378C50.7849 38.8153 51.5983 39.1416 52.3599 39.5568C53.1215 39.1394 53.9349 38.8153 54.7632 38.5378C54.7632 38.4934 54.7399 38.4499 54.7399 38.4077C54.7399 37.5752 54.9958 36.7453 55.4837 35.9883C57.8423 36.5455 60.1561 35.9435 61.8102 34.6181C61.8507 34.6403 61.8883 34.661 61.9264 34.6832C62.1001 36.0684 62.7912 37.3507 63.8741 38.4207C64.8332 38.7138 65.7687 39.0795 66.6446 39.5568C67.3966 39.1461 68.1943 38.824 69.0106 38.5465C69.0106 38.4977 69.0246 38.4545 69.0246 38.4034V37.74C69.0246 36.9985 68.624 36.3058 67.9647 35.8929C67.4673 35.5865 66.6399 34.9268 66.6399 33.9677C66.6399 33.0019 67.2762 32.2134 67.8532 31.4182C68.2435 31.4801 68.6279 31.7477 69.0199 31.7477C70.6341 31.7477 72.1134 31.0789 73.3987 30.1391C73.6038 30.2389 73.8287 30.3465 74.0774 30.5033C74.2838 31.6044 74.7644 32.5638 75.458 33.3911C74.5385 34.724 73.9785 36.2047 73.8543 37.7443C75.4775 37.7532 77.0614 38.0468 78.5632 38.5552C78.5584 38.5108 78.5399 38.4477 78.5399 38.4077C78.5399 37.6179 78.7876 36.8346 79.2279 36.1097C79.3197 36.083 79.4098 36.0512 79.4975 36.0143C81.7809 36.4862 84.0066 35.903 85.6102 34.6181C85.6507 34.6403 85.6883 34.661 85.7264 34.6832C85.8668 35.8065 86.3433 36.8683 87.093 37.8007C87.4143 37.7785 87.7339 37.74 88.0599 37.74C89.7283 37.74 91.3207 38.0233 92.8106 38.5161C92.8106 38.4784 92.8199 38.4455 92.8199 38.4077V37.74C92.8199 36.9985 92.424 36.3058 91.7647 35.8929C91.2697 35.5865 90.4399 34.9268 90.4399 33.9677V33.5211C90.4399 32.8218 90.0821 32.1586 89.4823 31.7391C89.4749 31.7338 89.4666 31.727 89.4591 31.7217C90.2002 30.4877 90.4399 29.1543 90.4399 27.9711V27.3077C90.4399 26.9423 90.3431 26.5825 90.1582 26.2603C89.9734 25.938 89.7061 25.6634 89.3801 25.4606C88.4598 24.8884 88.0599 24.2394 88.0599 23.5311V23.0889C88.0601 22.7439 87.974 22.4036 87.8086 22.095C87.6432 21.7864 87.403 21.518 87.107 21.3111C86.155 20.6451 84.9018 19.7004 83.0536 19.3556C82.8975 19.3264 82.7386 19.3119 82.5794 19.3123C82.1884 19.313 81.8036 19.4036 81.459 19.576C81.1145 19.7485 80.8207 19.9974 80.6038 20.3009C80.058 21.0645 79.5259 21.3111 78.5399 21.3111C78.5399 20.8988 78.4169 20.4947 78.1846 20.1439C77.9522 19.7932 77.6197 19.5097 77.2244 19.3253C76.7425 19.1005 76.1599 18.2472 76.1599 17.5389V17.0923C76.1594 16.748 76.073 16.4086 75.9076 16.1008C75.7422 15.793 75.5024 15.5253 75.207 15.3189C74.7703 15.0134 74.2462 14.6509 73.6544 14.3129C73.7143 13.9127 73.7799 13.5137 73.7799 13.0989V12.4311C73.7799 12.0188 73.6569 11.6147 73.4245 11.2639C73.1922 10.9132 72.8597 10.6297 72.4644 10.4453C71.9825 10.2205 71.3999 9.36716 71.3999 8.65888V8.21227C71.3994 7.868 71.313 7.52856 71.1476 7.22079C70.9822 6.91301 70.7424 6.64532 70.447 6.43888C69.495 5.77288 68.2418 4.82817 66.3936 4.48337C66.2375 4.45416 66.0786 4.43964 65.9194 4.44001ZM47.4326 9.05345C48.7303 8.90645 49.9888 9.19618 50.9793 10.1201C51.0227 10.1592 51.0677 10.1969 51.1141 10.2328C51.9238 10.8802 52.354 11.8175 52.4389 12.6913C52.4103 12.6917 52.3894 12.6956 52.3599 12.6956C52.1748 12.6956 51.5063 12.529 51.3001 12.4008C50.8423 12.1162 50.2929 11.9884 49.7455 12.0389C49.198 12.0895 48.6862 12.3155 48.2972 12.6783C46.8302 14.0466 45.7522 15.8635 45.3873 17.9204C45.2452 17.8851 45.1233 17.8313 44.9736 17.8034C44.8175 17.7742 44.6586 17.7596 44.4994 17.76C44.3528 17.7604 44.2065 17.7735 44.0625 17.799C44.0179 17.732 43.8905 17.5562 43.8905 17.5562C43.8843 17.5475 43.8781 17.5388 43.8719 17.5302C43.2357 16.538 43.0991 15.087 43.0723 13.8924C43.4711 13.6463 44.0532 13.5064 44.3507 13.229C45.5807 12.0816 45.9887 10.6984 46.131 9.33962C46.5641 9.20134 47 9.10244 47.4326 9.05345ZM66.2587 9.27024C66.4567 9.36657 66.6758 9.47193 66.9142 9.62145C67.142 11.0508 67.866 12.2578 68.992 13.242C68.9818 13.5345 68.9409 13.8186 68.8805 14.0961C68.8631 14.1147 68.846 14.1335 68.8293 14.1525C68.2158 14.8679 67.3993 15.3189 66.6399 15.3189C66.4548 15.3189 65.7863 15.1523 65.5801 15.024C65.1223 14.7395 64.5729 14.6116 64.0255 14.6622C63.478 14.7128 62.9662 14.9387 62.5772 15.3015C62.4155 15.4524 62.2836 15.6346 62.1309 15.7958C61.972 15.5144 61.8799 15.2215 61.8799 14.9156V14.469C61.8794 14.1248 61.793 13.7853 61.6276 13.4775C61.4622 13.1698 61.2224 12.9021 60.927 12.6956C60.61 12.4739 60.1966 12.214 59.8021 11.9629C60.0409 11.4715 60.3793 11.0096 60.7132 10.5493C61.1035 10.6112 61.4879 10.8789 61.8799 10.8789C63.6576 10.8789 65.0609 10.1581 66.2587 9.27024ZM56.7387 15.527C56.9438 15.6268 57.1687 15.7344 57.4174 15.8912C57.6847 17.3171 58.409 18.5082 59.4674 19.477C59.4469 20.1328 59.3138 20.6405 59.0909 20.9903C58.0442 20.4797 56.9248 20.1471 55.7719 20.0407C53.9831 19.8756 52.1579 20.2029 50.5005 20.9382C50.2019 20.2331 49.9799 19.5532 49.9799 19.3556C49.9799 18.3898 50.6162 17.6013 51.1932 16.8061C51.5836 16.868 51.9679 17.1356 52.3599 17.1356C53.9741 17.1356 55.4534 16.4668 56.7387 15.527ZM71.0187 18.1502C71.2167 18.2466 71.4358 18.3519 71.6742 18.5015C71.9001 19.9185 72.6149 21.1145 73.7241 22.0959C73.6843 23.3764 73.1197 24.5475 72.1111 25.4953C71.6934 25.6654 71.3369 25.9439 71.0838 26.2975C70.538 27.0611 70.0059 27.3077 69.0199 27.3077C68.8348 27.3077 68.1663 27.1412 67.9601 27.0129C67.5023 26.7283 66.9529 26.6005 66.4055 26.6511C65.858 26.7017 65.3462 26.9276 64.9572 27.2904C64.6214 27.6036 64.3265 27.9612 64.0321 28.318C63.9561 27.7965 63.8867 27.2757 63.7532 26.7441C63.5279 25.8462 63.1987 24.9412 62.6841 24.0948C63.1501 23.9388 63.5522 23.6511 63.8347 23.2719C64.1171 22.8926 64.2658 22.4406 64.2599 21.9789C64.2599 21.013 64.8962 20.2246 65.4732 19.4293C65.8636 19.4912 66.2479 19.7589 66.6399 19.7589C68.4176 19.7589 69.8209 19.0381 71.0187 18.1502ZM44.8387 22.5902C45.2424 22.7866 45.5779 22.8938 46.1728 23.31C46.2063 23.334 46.2404 23.3571 46.2751 23.3794C46.7021 24.1853 47.2425 24.968 47.9811 25.6818C47.7788 25.8534 47.4741 26.0493 47.0235 26.1544C46.5891 26.2559 46.1943 26.4696 45.8843 26.7711C45.5743 27.0725 45.3617 27.4494 45.2711 27.8584C45.2711 27.8584 45.081 28.6186 44.5784 29.3283C44.4404 29.5231 44.3067 29.694 44.1647 29.8443C43.8197 29.7575 43.4596 29.72 43.0909 29.7922C41.6601 30.0579 40.5822 30.713 39.6186 31.3662C39.3433 31.0052 39.0919 30.7191 38.8655 30.2909C38.4776 29.557 38.0799 28.4595 38.0799 26.4189C38.0799 25.453 38.7162 24.6646 39.2932 23.8693C39.6836 23.9312 40.0679 24.1989 40.4599 24.1989C42.0741 24.1989 43.5534 23.5301 44.8387 22.5902ZM82.9187 24.1425C83.1238 24.2423 83.3487 24.3499 83.5974 24.5067C83.8644 25.9331 84.5887 27.1278 85.6474 28.0969C85.6241 28.8246 85.4801 29.4077 85.2058 29.7489C85.1979 29.7589 85.1902 29.769 85.1825 29.7792C84.3121 29.6981 83.4746 30.0574 82.9885 30.7375C82.4934 31.4257 81.8386 31.7477 80.9199 31.7477C80.6367 31.7477 80.1527 31.6349 79.8647 31.4529C79.8635 31.4521 79.8613 31.4536 79.8601 31.4529C79.8581 31.4517 79.8574 31.4498 79.8554 31.4486C78.9394 30.8772 78.5399 30.2345 78.5399 29.5277V29.0811C78.5394 28.7369 78.453 28.3974 78.2876 28.0896C78.1222 27.7819 77.8824 27.5142 77.587 27.3077C77.405 27.1804 77.1469 27.0287 76.9409 26.8872C77.2191 26.4792 77.4859 26.0654 77.6986 25.6167C77.968 25.7085 78.2531 25.754 78.5399 25.7511C80.1541 25.7511 81.6334 25.0823 82.9187 24.1425ZM54.5075 24.5934C55.8052 24.4464 57.0638 24.7362 58.0543 25.6601C58.0976 25.6992 58.1426 25.7368 58.1891 25.7728C58.3387 25.8925 58.8448 26.6858 59.1141 27.7587C59.3311 28.623 59.4251 29.5911 59.4627 30.4513C59.3684 30.5439 59.2663 30.629 59.1885 30.7375C58.6934 31.4257 58.0386 31.7477 57.1199 31.7477C56.8367 31.7477 56.3527 31.6349 56.0647 31.4529C55.1199 30.869 53.8616 30.98 53.0572 31.7304C52.7954 31.9746 52.5908 32.2489 52.3599 32.5109C52.1291 32.2489 51.9245 31.9746 51.6627 31.7304C50.8841 31.0041 49.6879 30.89 48.7527 31.4139C49.1831 30.7147 49.3063 30.2728 49.4546 29.7966C50.1541 29.4658 50.9665 29.1972 51.4256 28.769C52.6556 27.6216 53.0636 26.2384 53.2059 24.8796C53.639 24.7413 54.0749 24.6424 54.5075 24.5934ZM30.9399 42.18C25.6896 42.18 21.4199 46.1627 21.4199 51.06C21.4199 51.1777 21.431 51.2936 21.4525 51.4112L30.9725 104.691C31.1557 105.77 32.1513 106.56 33.3199 106.56H85.6799C86.8485 106.56 87.8441 105.77 88.0274 104.691L97.5474 51.4112C97.5569 51.3513 97.538 51.2934 97.5427 51.2334C97.5475 51.1735 97.5799 51.1222 97.5799 51.06C97.5799 46.1627 93.3102 42.18 88.0599 42.18C85.2015 42.18 82.6668 43.3851 80.9199 45.2499C79.173 43.3851 76.6383 42.18 73.7799 42.18C70.9215 42.18 68.3868 43.3851 66.6399 45.2499C64.893 43.3851 62.3583 42.18 59.4999 42.18C56.6415 42.18 54.1068 43.3851 52.3599 45.2499C50.613 43.3851 48.0783 42.18 45.2199 42.18C42.3615 42.18 39.8268 43.3851 38.0799 45.2499C36.333 43.3851 33.7983 42.18 30.9399 42.18ZM49.8637 55.5043C51.1465 55.4244 52.2934 56.3839 52.3553 57.6116L56.1716 102.12H51.4023L47.6046 57.8284C47.5427 56.603 48.5499 55.5621 49.8637 55.5043ZM68.6806 55.5043C69.9943 55.551 71.0176 56.5813 70.9676 57.8067L68.0902 102.12H63.3302L66.2123 57.6333C66.2622 56.4078 67.3859 55.4644 68.6806 55.5043ZM82.677 55.5087C83.9836 55.6352 84.9369 56.7245 84.806 57.9455L79.9856 102.12H75.1977L80.0646 57.4945C80.2003 56.2758 81.3276 55.4199 82.677 55.5087ZM35.8812 55.513C37.1688 55.3776 38.3579 56.2671 38.4983 57.4859L43.593 102.12H38.8051L33.7662 57.9541C33.6258 56.7354 34.5722 55.644 35.8812 55.513Z" fill="#E6AC00"/>
</svg>
