<svg width="167" height="143" viewBox="0 0 167 143" fill="none" xmlns="http://www.w3.org/2000/svg">
<path d="M3.52273 104.909H7.72727L17.6136 129.057H17.9545L27.8409 104.909H32.0455V134H28.75V111.898H28.4659L19.375 134H16.1932L7.10227 111.898H6.81818V134H3.52273V104.909ZM47.8018 134.455C45.6996 134.455 43.8861 133.991 42.3615 133.062C40.8464 132.125 39.6768 130.818 38.853 129.142C38.0386 127.456 37.6314 125.496 37.6314 123.261C37.6314 121.027 38.0386 119.057 38.853 117.352C39.6768 115.638 40.8227 114.303 42.2905 113.347C43.7678 112.381 45.4912 111.898 47.4609 111.898C48.5973 111.898 49.7195 112.087 50.8274 112.466C51.9354 112.845 52.9439 113.46 53.853 114.312C54.7621 115.155 55.4865 116.273 56.0263 117.665C56.5661 119.057 56.8359 120.771 56.8359 122.807V124.227H40.0178V121.33H53.4268C53.4268 120.098 53.1806 119 52.6882 118.034C52.2053 117.068 51.514 116.306 50.6143 115.747C49.7242 115.188 48.6731 114.909 47.4609 114.909C46.1257 114.909 44.9704 115.241 43.995 115.903C43.0291 116.557 42.2857 117.409 41.7649 118.46C41.2441 119.511 40.9837 120.638 40.9837 121.841V123.773C40.9837 125.42 41.2678 126.817 41.8359 127.963C42.4136 129.099 43.2138 129.966 44.2365 130.562C45.2592 131.15 46.4477 131.443 47.8018 131.443C48.6825 131.443 49.478 131.32 50.1882 131.074C50.9079 130.818 51.5282 130.439 52.049 129.938C52.5698 129.426 52.9723 128.792 53.2564 128.034L56.495 128.943C56.1541 130.042 55.5812 131.008 54.7763 131.841C53.9714 132.665 52.977 133.309 51.7933 133.773C50.6096 134.227 49.2791 134.455 47.8018 134.455ZM61.9354 134V112.182H65.174V115.477H65.4013C65.799 114.398 66.5187 113.522 67.5604 112.849C68.602 112.177 69.7763 111.841 71.0831 111.841C71.3293 111.841 71.6371 111.846 72.0064 111.855C72.3757 111.865 72.6551 111.879 72.8445 111.898V115.307C72.7308 115.278 72.4704 115.236 72.0632 115.179C71.6655 115.113 71.2441 115.08 70.799 115.08C69.7384 115.08 68.7914 115.302 67.9581 115.747C67.1342 116.183 66.4808 116.789 65.9979 117.565C65.5244 118.332 65.2876 119.208 65.2876 120.193V134H61.9354ZM85.0178 134.455C82.9723 134.455 81.2109 133.972 79.7337 133.006C78.2564 132.04 77.12 130.709 76.3246 129.014C75.5291 127.319 75.1314 125.383 75.1314 123.205C75.1314 120.989 75.5386 119.033 76.353 117.338C77.1768 115.634 78.3227 114.303 79.7905 113.347C81.2678 112.381 82.9912 111.898 84.9609 111.898C86.495 111.898 87.8776 112.182 89.1087 112.75C90.3397 113.318 91.3482 114.114 92.1342 115.136C92.9202 116.159 93.4079 117.352 93.5973 118.716H90.245C89.9893 117.722 89.4212 116.841 88.5405 116.074C87.6693 115.297 86.495 114.909 85.0178 114.909C83.7109 114.909 82.5651 115.25 81.5803 115.932C80.6049 116.604 79.8426 117.556 79.2933 118.787C78.7536 120.009 78.4837 121.443 78.4837 123.091C78.4837 124.777 78.7488 126.244 79.2791 127.494C79.8189 128.744 80.5765 129.715 81.5518 130.406C82.5367 131.098 83.692 131.443 85.0178 131.443C85.889 131.443 86.6797 131.292 87.3899 130.989C88.1001 130.686 88.7015 130.25 89.1939 129.682C89.6863 129.114 90.0367 128.432 90.245 127.636H93.5973C93.4079 128.924 92.9392 130.084 92.1911 131.116C91.4524 132.139 90.4723 132.954 89.2507 133.56C88.0386 134.156 86.6276 134.455 85.0178 134.455ZM104.918 134.511C103.536 134.511 102.281 134.251 101.154 133.73C100.027 133.2 99.1323 132.438 98.4695 131.443C97.8066 130.439 97.4751 129.227 97.4751 127.807C97.4751 126.557 97.7214 125.544 98.2138 124.767C98.7062 123.981 99.3643 123.366 100.188 122.92C101.012 122.475 101.921 122.144 102.915 121.926C103.919 121.699 104.928 121.519 105.941 121.386C107.267 121.216 108.342 121.088 109.165 121.003C109.999 120.908 110.605 120.752 110.984 120.534C111.372 120.316 111.566 119.937 111.566 119.398V119.284C111.566 117.883 111.183 116.794 110.415 116.017C109.658 115.241 108.507 114.852 106.964 114.852C105.363 114.852 104.109 115.203 103.2 115.903C102.29 116.604 101.651 117.352 101.282 118.148L98.1001 117.011C98.6683 115.686 99.4259 114.653 100.373 113.915C101.329 113.167 102.371 112.646 103.498 112.352C104.634 112.049 105.752 111.898 106.85 111.898C107.551 111.898 108.356 111.983 109.265 112.153C110.183 112.314 111.069 112.651 111.921 113.162C112.783 113.673 113.498 114.445 114.066 115.477C114.634 116.509 114.918 117.892 114.918 119.625V134H111.566V131.045H111.396C111.168 131.519 110.79 132.026 110.259 132.565C109.729 133.105 109.023 133.564 108.143 133.943C107.262 134.322 106.187 134.511 104.918 134.511ZM105.43 131.5C106.755 131.5 107.873 131.24 108.782 130.719C109.701 130.198 110.392 129.526 110.856 128.702C111.329 127.878 111.566 127.011 111.566 126.102V123.034C111.424 123.205 111.112 123.361 110.629 123.503C110.155 123.635 109.606 123.754 108.981 123.858C108.365 123.953 107.764 124.038 107.177 124.114C106.599 124.18 106.13 124.237 105.771 124.284C104.899 124.398 104.085 124.582 103.327 124.838C102.579 125.084 101.973 125.458 101.509 125.96C101.055 126.453 100.827 127.125 100.827 127.977C100.827 129.142 101.258 130.023 102.12 130.619C102.991 131.206 104.094 131.5 105.43 131.5ZM129.276 134.455C127.457 134.455 125.852 133.995 124.46 133.077C123.068 132.149 121.979 130.842 121.193 129.156C120.407 127.461 120.014 125.458 120.014 123.148C120.014 120.856 120.407 118.867 121.193 117.182C121.979 115.496 123.073 114.194 124.474 113.276C125.876 112.357 127.495 111.898 129.332 111.898C130.753 111.898 131.875 112.134 132.699 112.608C133.532 113.072 134.167 113.602 134.602 114.199C135.047 114.786 135.393 115.269 135.639 115.648H135.923V104.909H139.276V134H136.037V130.648H135.639C135.393 131.045 135.043 131.547 134.588 132.153C134.134 132.75 133.485 133.285 132.642 133.759C131.799 134.223 130.677 134.455 129.276 134.455ZM129.73 131.443C131.075 131.443 132.211 131.093 133.139 130.392C134.067 129.682 134.773 128.702 135.256 127.452C135.739 126.192 135.98 124.739 135.98 123.091C135.98 121.462 135.743 120.037 135.27 118.815C134.796 117.584 134.096 116.628 133.168 115.946C132.24 115.255 131.094 114.909 129.73 114.909C128.31 114.909 127.126 115.274 126.179 116.003C125.241 116.723 124.536 117.703 124.062 118.943C123.598 120.174 123.366 121.557 123.366 123.091C123.366 124.644 123.603 126.055 124.077 127.324C124.56 128.583 125.27 129.587 126.207 130.335C127.154 131.074 128.329 131.443 129.73 131.443ZM154.744 134.455C152.775 134.455 151.046 133.986 149.56 133.048C148.082 132.111 146.927 130.799 146.094 129.114C145.27 127.428 144.858 125.458 144.858 123.205C144.858 120.932 145.27 118.948 146.094 117.253C146.927 115.558 148.082 114.241 149.56 113.304C151.046 112.366 152.775 111.898 154.744 111.898C156.714 111.898 158.438 112.366 159.915 113.304C161.402 114.241 162.557 115.558 163.381 117.253C164.214 118.948 164.631 120.932 164.631 123.205C164.631 125.458 164.214 127.428 163.381 129.114C162.557 130.799 161.402 132.111 159.915 133.048C158.438 133.986 156.714 134.455 154.744 134.455ZM154.744 131.443C156.241 131.443 157.472 131.06 158.438 130.293C159.403 129.526 160.118 128.517 160.582 127.267C161.046 126.017 161.278 124.663 161.278 123.205C161.278 121.746 161.046 120.387 160.582 119.128C160.118 117.868 159.403 116.85 158.438 116.074C157.472 115.297 156.241 114.909 154.744 114.909C153.248 114.909 152.017 115.297 151.051 116.074C150.085 116.85 149.37 117.868 148.906 119.128C148.442 120.387 148.21 121.746 148.21 123.205C148.21 124.663 148.442 126.017 148.906 127.267C149.37 128.517 150.085 129.526 151.051 130.293C152.017 131.06 153.248 131.443 154.744 131.443Z" fill="#FF6666"/>
<path d="M68.6362 81.1365C71.3726 81.1365 73.5908 79.427 73.5908 77.3182C73.5908 75.2095 71.3726 73.5 68.6362 73.5C65.8999 73.5 63.6816 75.2095 63.6816 77.3182C63.6816 79.427 65.8999 81.1365 68.6362 81.1365Z" fill="#FF6666"/>
<path d="M113.227 81.1365C115.963 81.1365 118.182 79.427 118.182 77.3182C118.182 75.2095 115.963 73.5 113.227 73.5C110.491 73.5 108.272 75.2095 108.272 77.3182C108.272 79.427 110.491 81.1365 113.227 81.1365Z" fill="#FF6666"/>
<path d="M137.505 18.709C137.009 18.3273 136.266 18.1363 135.523 18.1363H61.2046C59.7182 18.1363 58.7274 18.9 58.7274 20.0453C58.7274 21.1906 59.7184 21.9544 61.2046 21.9544H132.55L126.605 53.0726C126.357 54.9816 124.127 56.3181 121.65 56.3181H60.709L49.5614 7.6363C48.8182 4.77259 45.8454 2.86356 42.1296 2.86356H36.4318C32.2204 2.86372 29 5.34549 29 8.59098C29 9.7363 29.991 10.5 31.4772 10.5C32.9634 10.5 33.9544 9.7363 33.9544 8.59098C33.9544 7.44566 34.9454 6.68195 36.4316 6.68195H42.1294C43.368 6.68195 44.359 7.25469 44.6066 8.2092L56.002 57.4637C53.277 58.8002 51.2952 61.2819 51.2952 63.9547C51.2952 68.1547 55.7542 71.591 61.2042 71.591H125.613C127.1 71.591 128.09 70.8273 128.09 69.6819C128.09 68.5366 127.099 67.7729 125.613 67.7729H61.2046C58.4796 67.7729 56.25 66.0547 56.25 63.9547C56.25 61.8547 58.4796 60.1365 61.2046 60.1365H121.65C126.605 60.1365 130.816 57.4637 131.559 53.6455L138 20.2363C138 19.8545 137.752 19.2818 137.505 18.709Z" fill="#FF6666"/>
<path d="M120.659 42.9545H110.75V35.3182H120.659C122.145 35.3182 123.136 34.5545 123.136 33.4092C123.136 32.2639 122.145 31.5 120.659 31.5H110.75V27.6818C110.75 26.5363 109.759 25.7728 108.273 25.7728C106.787 25.7728 105.796 26.5365 105.796 27.6818V31.5H95.8866V27.6818C95.8866 26.5363 94.8956 25.7728 93.4094 25.7728C91.9232 25.7728 90.9322 26.5365 90.9322 27.6818V31.5H81.0232V27.6818C81.0232 26.5363 80.0322 25.7728 78.546 25.7728C77.0598 25.7728 76.0688 26.5365 76.0688 27.6818V31.5H66.1598C64.6734 31.5 63.6826 32.2637 63.6826 33.4091C63.6826 34.5544 64.6736 35.3181 66.1598 35.3181H76.0688V42.9544H66.1598C64.6734 42.9544 63.6826 43.7181 63.6826 44.8634C63.6826 46.0089 64.6736 46.7724 66.1598 46.7724H76.0688V50.5907C76.0688 51.7361 77.0598 52.4997 78.546 52.4997C80.0322 52.4997 81.0232 51.736 81.0232 50.5907V46.7724H90.9322V50.5907C90.9322 51.7361 91.9232 52.4997 93.4094 52.4997C94.8956 52.4997 95.8866 51.736 95.8866 50.5907V46.7724H105.796V50.5907C105.796 51.7361 106.787 52.4997 108.273 52.4997C109.759 52.4997 110.75 51.7363 110.75 50.591V46.7728H120.659C122.145 46.7728 123.136 46.0091 123.136 44.8637C123.136 43.7182 122.145 42.9545 120.659 42.9545ZM90.9318 42.9545H81.0228V35.3182H90.9318V42.9545ZM105.795 42.9545H95.8864V35.3182H105.795V42.9545Z" fill="#FF6666"/>
</svg>
