<svg width="163" height="150" viewBox="0 0 163 150" fill="none" xmlns="http://www.w3.org/2000/svg">
<path fill-rule="evenodd" clip-rule="evenodd" d="M139.03 14.3882L111.309 40.3416L128.071 83.3543C128.897 85.8182 128.383 88.872 127.316 89.8679C124.284 92.6996 122.123 91.3531 120.973 90.1663L94.1717 56.3876L64.5018 84.1629L69.8435 102.659C67.7344 100.688 55.4289 85.315 55.135 85.0339C54.9379 84.8535 38.7489 73.5962 37.0043 71.9583L56.0167 76.7472L86.2483 49.0518L50.2955 24.2331C49.2651 23.3725 47.9073 20.8323 50.6824 18.2331C51.7537 17.2372 54.99 16.9353 57.6237 17.7091L103.531 33.2278L131.627 7.48944C133.591 5.65719 137.434 5.84462 139.156 7.45131C140.875 9.058 140.994 12.5594 139.03 14.3882ZM144.063 2.78742C139.428 -1.55029 131.281 -0.5336 126.62 3.82494L102.898 25.9022L58.8995 10.5641C54.6849 9.54731 50.4406 8.23211 45.2141 13.1216C42.5469 15.6132 37.0043 20.7976 45.2141 28.4702L75.3824 51.5121L55.7526 69.7861L37.4358 65.5142C34.7203 64.8618 32.8901 65.372 31.4952 66.8086C30.7921 67.6276 25.6921 71.1533 29.2483 74.4777L50.5447 89.9339L67.1131 109.801C69.6873 112.209 72.0791 110.706 75.3489 107.809C77.4209 105.872 76.9745 104.876 76.3496 102.055L72.2131 85.086L91.709 66.8364L116.372 94.9864C124.578 102.659 130.124 97.4711 132.792 94.9864C138.022 90.0935 136.616 86.1305 135.526 82.1919L119.221 41.0773L142.846 18.9618C147.507 14.6068 148.702 7.12167 144.063 2.78742Z" fill="#009933"/>
<path d="M4.71591 111.909L13.3523 136.398H13.6932L22.3295 111.909H26.0227L15.3409 141H11.7045L1.02273 111.909H4.71591ZM30.0994 141V119.182H33.4517V141H30.0994ZM31.804 115.545C31.1506 115.545 30.5871 115.323 30.1136 114.878C29.6496 114.433 29.4176 113.898 29.4176 113.273C29.4176 112.648 29.6496 112.113 30.1136 111.668C30.5871 111.223 31.1506 111 31.804 111C32.4574 111 33.0161 111.223 33.4801 111.668C33.9536 112.113 34.1903 112.648 34.1903 113.273C34.1903 113.898 33.9536 114.433 33.4801 114.878C33.0161 115.323 32.4574 115.545 31.804 115.545ZM46.0121 141.511C44.6295 141.511 43.3748 141.251 42.2479 140.73C41.121 140.2 40.2261 139.438 39.5632 138.443C38.9003 137.439 38.5689 136.227 38.5689 134.807C38.5689 133.557 38.8151 132.544 39.3075 131.767C39.8 130.981 40.4581 130.366 41.282 129.92C42.1058 129.475 43.0149 129.144 44.0092 128.926C45.013 128.699 46.0215 128.519 47.0348 128.386C48.3606 128.216 49.4354 128.088 50.2592 128.003C51.0926 127.908 51.6986 127.752 52.0774 127.534C52.4657 127.316 52.6598 126.937 52.6598 126.398V126.284C52.6598 124.883 52.2763 123.794 51.5092 123.017C50.7517 122.241 49.6011 121.852 48.0575 121.852C46.4571 121.852 45.2024 122.203 44.2933 122.903C43.3842 123.604 42.745 124.352 42.3757 125.148L39.1939 124.011C39.7621 122.686 40.5196 121.653 41.4666 120.915C42.4231 120.167 43.4647 119.646 44.5916 119.352C45.728 119.049 46.8454 118.898 47.9439 118.898C48.6446 118.898 49.4496 118.983 50.3587 119.153C51.2772 119.314 52.1626 119.651 53.0149 120.162C53.8767 120.673 54.5916 121.445 55.1598 122.477C55.728 123.509 56.0121 124.892 56.0121 126.625V141H52.6598V138.045H52.4893C52.2621 138.519 51.8833 139.026 51.353 139.565C50.8227 140.105 50.1172 140.564 49.2365 140.943C48.3558 141.322 47.281 141.511 46.0121 141.511ZM46.5234 138.5C47.8492 138.5 48.9666 138.24 49.8757 137.719C50.7943 137.198 51.4856 136.526 51.9496 135.702C52.4231 134.878 52.6598 134.011 52.6598 133.102V130.034C52.5178 130.205 52.2053 130.361 51.7223 130.503C51.2488 130.635 50.6996 130.754 50.0746 130.858C49.459 130.953 48.8577 131.038 48.2706 131.114C47.6929 131.18 47.2242 131.237 46.8643 131.284C45.9931 131.398 45.1787 131.582 44.4212 131.838C43.6731 132.084 43.067 132.458 42.603 132.96C42.1484 133.453 41.9212 134.125 41.9212 134.977C41.9212 136.142 42.352 137.023 43.2138 137.619C44.085 138.206 45.1882 138.5 46.5234 138.5ZM70.9375 149.636C69.3182 149.636 67.9261 149.428 66.7614 149.011C65.5966 148.604 64.6259 148.064 63.8494 147.392C63.0824 146.729 62.4716 146.019 62.017 145.261L64.6875 143.386C64.9905 143.784 65.3741 144.239 65.8381 144.75C66.3021 145.271 66.9366 145.721 67.7415 146.099C68.5559 146.488 69.6212 146.682 70.9375 146.682C72.6989 146.682 74.1525 146.256 75.2983 145.403C76.4441 144.551 77.017 143.216 77.017 141.398V136.966H76.733C76.4867 137.364 76.1364 137.856 75.6818 138.443C75.2367 139.021 74.5928 139.537 73.75 139.991C72.9167 140.437 71.7898 140.659 70.3693 140.659C68.608 140.659 67.0265 140.242 65.625 139.409C64.233 138.576 63.1297 137.364 62.3153 135.773C61.5104 134.182 61.108 132.25 61.108 129.977C61.108 127.742 61.5009 125.796 62.2869 124.139C63.0729 122.473 64.1667 121.185 65.5682 120.276C66.9697 119.357 68.589 118.898 70.4261 118.898C71.8466 118.898 72.9735 119.134 73.8068 119.608C74.6496 120.072 75.2936 120.602 75.7386 121.199C76.1932 121.786 76.5436 122.269 76.7898 122.648H77.1307V119.182H80.3693V141.625C80.3693 143.5 79.9432 145.025 79.0909 146.199C78.2481 147.383 77.1117 148.249 75.6818 148.798C74.2614 149.357 72.6799 149.636 70.9375 149.636ZM70.8239 137.648C72.1686 137.648 73.3049 137.34 74.233 136.724C75.161 136.109 75.8665 135.223 76.3494 134.068C76.8324 132.913 77.0739 131.53 77.0739 129.92C77.0739 128.348 76.8371 126.961 76.3636 125.759C75.8902 124.556 75.1894 123.614 74.2614 122.932C73.3333 122.25 72.1875 121.909 70.8239 121.909C69.4034 121.909 68.2197 122.269 67.2727 122.989C66.3352 123.708 65.6297 124.674 65.1562 125.886C64.6922 127.098 64.4602 128.443 64.4602 129.92C64.4602 131.436 64.697 132.776 65.1705 133.94C65.6534 135.096 66.3636 136.005 67.3011 136.668C68.2481 137.321 69.4223 137.648 70.8239 137.648ZM95.6534 141.455C93.5511 141.455 91.7377 140.991 90.2131 140.062C88.6979 139.125 87.5284 137.818 86.7045 136.142C85.8902 134.456 85.483 132.496 85.483 130.261C85.483 128.027 85.8902 126.057 86.7045 124.352C87.5284 122.638 88.6742 121.303 90.142 120.347C91.6193 119.381 93.3428 118.898 95.3125 118.898C96.4489 118.898 97.571 119.087 98.679 119.466C99.7869 119.845 100.795 120.46 101.705 121.312C102.614 122.155 103.338 123.273 103.878 124.665C104.418 126.057 104.688 127.771 104.688 129.807V131.227H87.8693V128.33H101.278C101.278 127.098 101.032 126 100.54 125.034C100.057 124.068 99.3655 123.306 98.4659 122.747C97.5758 122.188 96.5246 121.909 95.3125 121.909C93.9773 121.909 92.822 122.241 91.8466 122.903C90.8807 123.557 90.1373 124.409 89.6165 125.46C89.0956 126.511 88.8352 127.638 88.8352 128.841V130.773C88.8352 132.42 89.1193 133.817 89.6875 134.963C90.2652 136.099 91.0653 136.966 92.0881 137.562C93.1108 138.15 94.2992 138.443 95.6534 138.443C96.5341 138.443 97.3295 138.32 98.0398 138.074C98.7595 137.818 99.3797 137.439 99.9006 136.938C100.421 136.426 100.824 135.792 101.108 135.034L104.347 135.943C104.006 137.042 103.433 138.008 102.628 138.841C101.823 139.665 100.829 140.309 99.6449 140.773C98.4612 141.227 97.1307 141.455 95.6534 141.455ZM113.139 127.875V141H109.787V119.182H113.026V122.591H113.31C113.821 121.483 114.598 120.593 115.639 119.92C116.681 119.239 118.026 118.898 119.673 118.898C121.151 118.898 122.443 119.201 123.551 119.807C124.659 120.403 125.521 121.312 126.136 122.534C126.752 123.746 127.06 125.28 127.06 127.136V141H123.707V127.364C123.707 125.65 123.262 124.314 122.372 123.358C121.482 122.392 120.26 121.909 118.707 121.909C117.637 121.909 116.681 122.141 115.838 122.605C115.005 123.069 114.347 123.746 113.864 124.636C113.381 125.527 113.139 126.606 113.139 127.875ZM148.64 124.068L145.629 124.92C145.439 124.419 145.16 123.931 144.79 123.457C144.431 122.974 143.938 122.577 143.313 122.264C142.688 121.952 141.888 121.795 140.913 121.795C139.577 121.795 138.465 122.103 137.575 122.719C136.694 123.325 136.254 124.097 136.254 125.034C136.254 125.867 136.557 126.526 137.163 127.009C137.769 127.491 138.716 127.894 140.004 128.216L143.242 129.011C145.193 129.485 146.647 130.209 147.603 131.185C148.559 132.151 149.038 133.396 149.038 134.92C149.038 136.17 148.678 137.288 147.958 138.273C147.248 139.258 146.254 140.034 144.975 140.602C143.697 141.17 142.21 141.455 140.515 141.455C138.29 141.455 136.448 140.972 134.989 140.006C133.531 139.04 132.608 137.629 132.219 135.773L135.401 134.977C135.704 136.152 136.277 137.032 137.12 137.619C137.972 138.206 139.085 138.5 140.458 138.5C142.021 138.5 143.261 138.169 144.18 137.506C145.108 136.833 145.572 136.028 145.572 135.091C145.572 134.333 145.307 133.699 144.776 133.188C144.246 132.667 143.432 132.278 142.333 132.023L138.697 131.17C136.699 130.697 135.231 129.963 134.293 128.969C133.365 127.965 132.901 126.71 132.901 125.205C132.901 123.973 133.247 122.884 133.938 121.938C134.639 120.991 135.591 120.247 136.793 119.707C138.005 119.168 139.379 118.898 140.913 118.898C143.072 118.898 144.767 119.371 145.998 120.318C147.238 121.265 148.119 122.515 148.64 124.068Z" fill="#009933"/>
</svg>
