<svg width="175" height="155" viewBox="0 0 175 155" fill="none" xmlns="http://www.w3.org/2000/svg">
<g clip-path="url(#clip0_141_103)">
<path d="M62 31.7143L45 47.5714V111H130V47.5714L113 31.7143L62 31.7143ZM79 47.5714H96V63.4286H113V79.2857H96V95.1429H79V79.2857H62V63.4286H79V47.5714ZM62 0V23.7857H113V0H62Z" fill="#FFF"/>
</g>
<path d="M3.52273 146V116.909H20.9659V120.034H7.04545V129.864H19.6591V132.989H7.04545V146H3.52273ZM32.9652 146.511C31.5826 146.511 30.3279 146.251 29.201 145.73C28.0741 145.2 27.1792 144.438 26.5163 143.443C25.8535 142.439 25.522 141.227 25.522 139.807C25.522 138.557 25.7682 137.544 26.2607 136.767C26.7531 135.981 27.4112 135.366 28.2351 134.92C29.0589 134.475 29.968 134.144 30.9624 133.926C31.9661 133.699 32.9747 133.519 33.9879 133.386C35.3137 133.216 36.3885 133.088 37.2124 133.003C38.0457 132.908 38.6518 132.752 39.0305 132.534C39.4188 132.316 39.6129 131.937 39.6129 131.398V131.284C39.6129 129.883 39.2294 128.794 38.4624 128.017C37.7048 127.241 36.5542 126.852 35.0107 126.852C33.4103 126.852 32.1555 127.203 31.2464 127.903C30.3374 128.604 29.6982 129.352 29.3288 130.148L26.147 129.011C26.7152 127.686 27.4728 126.653 28.4197 125.915C29.3762 125.167 30.4179 124.646 31.5447 124.352C32.6811 124.049 33.7985 123.898 34.897 123.898C35.5978 123.898 36.4027 123.983 37.3118 124.153C38.2304 124.314 39.1158 124.651 39.968 125.162C40.8298 125.673 41.5447 126.445 42.1129 127.477C42.6811 128.509 42.9652 129.892 42.9652 131.625V146H39.6129V143.045H39.4425C39.2152 143.519 38.8364 144.026 38.3061 144.565C37.7758 145.105 37.0703 145.564 36.1896 145.943C35.3089 146.322 34.2341 146.511 32.9652 146.511ZM33.4766 143.5C34.8023 143.5 35.9197 143.24 36.8288 142.719C37.7474 142.198 38.4387 141.526 38.9027 140.702C39.3762 139.878 39.6129 139.011 39.6129 138.102V135.034C39.4709 135.205 39.1584 135.361 38.6754 135.503C38.2019 135.635 37.6527 135.754 37.0277 135.858C36.4122 135.953 35.8108 136.038 35.2237 136.114C34.6461 136.18 34.1773 136.237 33.8175 136.284C32.9463 136.398 32.1319 136.582 31.3743 136.838C30.6262 137.084 30.0201 137.458 29.5561 137.96C29.1016 138.453 28.8743 139.125 28.8743 139.977C28.8743 141.142 29.3052 142.023 30.1669 142.619C31.0381 143.206 32.1413 143.5 33.4766 143.5ZM49.0838 146V124.182H52.3224V127.477H52.5497C52.9474 126.398 53.6671 125.522 54.7088 124.849C55.7505 124.177 56.9247 123.841 58.2315 123.841C58.4777 123.841 58.7855 123.846 59.1548 123.855C59.5241 123.865 59.8035 123.879 59.9929 123.898V127.307C59.8793 127.278 59.6188 127.236 59.2116 127.179C58.8139 127.113 58.3925 127.08 57.9474 127.08C56.8868 127.08 55.9399 127.302 55.1065 127.747C54.2827 128.183 53.6293 128.789 53.1463 129.565C52.6728 130.332 52.4361 131.208 52.4361 132.193V146H49.0838ZM63.9666 146V124.182H67.2053V127.591H67.4893C67.9439 126.426 68.6778 125.522 69.6911 124.878C70.7043 124.224 71.9212 123.898 73.3416 123.898C74.781 123.898 75.9789 124.224 76.9354 124.878C77.9013 125.522 78.6541 126.426 79.1939 127.591H79.4212C79.9799 126.464 80.8179 125.569 81.9354 124.906C83.0528 124.234 84.3928 123.898 85.9553 123.898C87.906 123.898 89.5017 124.509 90.7422 125.73C91.9827 126.942 92.603 128.831 92.603 131.398V146H89.2507V131.398C89.2507 129.788 88.8104 128.637 87.9297 127.946C87.049 127.255 86.0121 126.909 84.8189 126.909C83.2848 126.909 82.0964 127.373 81.2536 128.301C80.4107 129.22 79.9893 130.384 79.9893 131.795V146H76.5803V131.057C76.5803 129.816 76.1778 128.817 75.3729 128.06C74.5679 127.293 73.531 126.909 72.2621 126.909C71.3909 126.909 70.5765 127.141 69.8189 127.605C69.0708 128.069 68.4647 128.713 68.0007 129.537C67.5462 130.351 67.3189 131.294 67.3189 132.364V146H63.9666ZM105.153 146.511C103.77 146.511 102.515 146.251 101.388 145.73C100.262 145.2 99.3667 144.438 98.7038 143.443C98.041 142.439 97.7095 141.227 97.7095 139.807C97.7095 138.557 97.9557 137.544 98.4482 136.767C98.9406 135.981 99.5987 135.366 100.423 134.92C101.246 134.475 102.156 134.144 103.15 133.926C104.154 133.699 105.162 133.519 106.175 133.386C107.501 133.216 108.576 133.088 109.4 133.003C110.233 132.908 110.839 132.752 111.218 132.534C111.606 132.316 111.8 131.937 111.8 131.398V131.284C111.8 129.883 111.417 128.794 110.65 128.017C109.892 127.241 108.742 126.852 107.198 126.852C105.598 126.852 104.343 127.203 103.434 127.903C102.525 128.604 101.886 129.352 101.516 130.148L98.3345 129.011C98.9027 127.686 99.6603 126.653 100.607 125.915C101.564 125.167 102.605 124.646 103.732 124.352C104.869 124.049 105.986 123.898 107.085 123.898C107.785 123.898 108.59 123.983 109.499 124.153C110.418 124.314 111.303 124.651 112.156 125.162C113.017 125.673 113.732 126.445 114.3 127.477C114.869 128.509 115.153 129.892 115.153 131.625V146H111.8V143.045H111.63C111.403 143.519 111.024 144.026 110.494 144.565C109.963 145.105 109.258 145.564 108.377 145.943C107.496 146.322 106.422 146.511 105.153 146.511ZM105.664 143.5C106.99 143.5 108.107 143.24 109.016 142.719C109.935 142.198 110.626 141.526 111.09 140.702C111.564 139.878 111.8 139.011 111.8 138.102V135.034C111.658 135.205 111.346 135.361 110.863 135.503C110.389 135.635 109.84 135.754 109.215 135.858C108.6 135.953 107.998 136.038 107.411 136.114C106.834 136.18 106.365 136.237 106.005 136.284C105.134 136.398 104.319 136.582 103.562 136.838C102.814 137.084 102.208 137.458 101.744 137.96C101.289 138.453 101.062 139.125 101.062 139.977C101.062 141.142 101.493 142.023 102.354 142.619C103.226 143.206 104.329 143.5 105.664 143.5ZM105.778 121.227L109.244 114.636H113.164L108.732 121.227H105.778ZM130.135 146.455C128.089 146.455 126.328 145.972 124.851 145.006C123.374 144.04 122.237 142.709 121.442 141.014C120.646 139.319 120.249 137.383 120.249 135.205C120.249 132.989 120.656 131.033 121.47 129.338C122.294 127.634 123.44 126.303 124.908 125.347C126.385 124.381 128.108 123.898 130.078 123.898C131.612 123.898 132.995 124.182 134.226 124.75C135.457 125.318 136.465 126.114 137.251 127.136C138.037 128.159 138.525 129.352 138.714 130.716H135.362C135.107 129.722 134.538 128.841 133.658 128.074C132.786 127.297 131.612 126.909 130.135 126.909C128.828 126.909 127.682 127.25 126.697 127.932C125.722 128.604 124.96 129.556 124.411 130.787C123.871 132.009 123.601 133.443 123.601 135.091C123.601 136.777 123.866 138.244 124.396 139.494C124.936 140.744 125.694 141.715 126.669 142.406C127.654 143.098 128.809 143.443 130.135 143.443C131.006 143.443 131.797 143.292 132.507 142.989C133.217 142.686 133.819 142.25 134.311 141.682C134.804 141.114 135.154 140.432 135.362 139.636H138.714C138.525 140.924 138.056 142.084 137.308 143.116C136.57 144.139 135.589 144.954 134.368 145.56C133.156 146.156 131.745 146.455 130.135 146.455ZM143.615 146V124.182H146.967V146H143.615ZM145.32 120.545C144.666 120.545 144.103 120.323 143.629 119.878C143.165 119.433 142.933 118.898 142.933 118.273C142.933 117.648 143.165 117.113 143.629 116.668C144.103 116.223 144.666 116 145.32 116C145.973 116 146.532 116.223 146.996 116.668C147.469 117.113 147.706 117.648 147.706 118.273C147.706 118.898 147.469 119.433 146.996 119.878C146.532 120.323 145.973 120.545 145.32 120.545ZM159.528 146.511C158.145 146.511 156.89 146.251 155.763 145.73C154.637 145.2 153.742 144.438 153.079 143.443C152.416 142.439 152.085 141.227 152.085 139.807C152.085 138.557 152.331 137.544 152.823 136.767C153.316 135.981 153.974 135.366 154.798 134.92C155.621 134.475 156.531 134.144 157.525 133.926C158.529 133.699 159.537 133.519 160.55 133.386C161.876 133.216 162.951 133.088 163.775 133.003C164.608 132.908 165.214 132.752 165.593 132.534C165.981 132.316 166.175 131.937 166.175 131.398V131.284C166.175 129.883 165.792 128.794 165.025 128.017C164.267 127.241 163.117 126.852 161.573 126.852C159.973 126.852 158.718 127.203 157.809 127.903C156.9 128.604 156.261 129.352 155.891 130.148L152.71 129.011C153.278 127.686 154.035 126.653 154.982 125.915C155.939 125.167 156.98 124.646 158.107 124.352C159.244 124.049 160.361 123.898 161.46 123.898C162.16 123.898 162.965 123.983 163.874 124.153C164.793 124.314 165.678 124.651 166.531 125.162C167.392 125.673 168.107 126.445 168.675 127.477C169.244 128.509 169.528 129.892 169.528 131.625V146H166.175V143.045H166.005C165.778 143.519 165.399 144.026 164.869 144.565C164.338 145.105 163.633 145.564 162.752 145.943C161.871 146.322 160.797 146.511 159.528 146.511ZM160.039 143.5C161.365 143.5 162.482 143.24 163.391 142.719C164.31 142.198 165.001 141.526 165.465 140.702C165.939 139.878 166.175 139.011 166.175 138.102V135.034C166.033 135.205 165.721 135.361 165.238 135.503C164.764 135.635 164.215 135.754 163.59 135.858C162.975 135.953 162.373 136.038 161.786 136.114C161.209 136.18 160.74 136.237 160.38 136.284C159.509 136.398 158.694 136.582 157.937 136.838C157.189 137.084 156.583 137.458 156.119 137.96C155.664 138.453 155.437 139.125 155.437 139.977C155.437 141.142 155.868 142.023 156.729 142.619C157.601 143.206 158.704 143.5 160.039 143.5Z" fill="#FFF"/>
<defs>
<clipPath id="clip0_141_103">
<rect width="119" height="111" fill="#FFF" transform="translate(28)"/>
</clipPath>
</defs>
</svg>
