<svg width="105" height="138" viewBox="0 0 105 138" fill="none" xmlns="http://www.w3.org/2000/svg">
<path d="M23.5227 129V99.9091H33.3523C35.6345 99.9091 37.5 100.321 38.9489 101.145C40.4072 101.959 41.4867 103.062 42.1875 104.455C42.8883 105.847 43.2386 107.4 43.2386 109.114C43.2386 110.828 42.8883 112.385 42.1875 113.787C41.4962 115.188 40.4261 116.306 38.9773 117.139C37.5284 117.963 35.6723 118.375 33.4091 118.375H26.3636V115.25H33.2955C34.858 115.25 36.1127 114.98 37.0597 114.44C38.0066 113.901 38.6932 113.171 39.1193 112.253C39.5549 111.325 39.7727 110.278 39.7727 109.114C39.7727 107.949 39.5549 106.907 39.1193 105.989C38.6932 105.07 38.0019 104.35 37.0455 103.83C36.089 103.299 34.8201 103.034 33.2386 103.034H27.0455V129H23.5227ZM57.3722 129.455C55.2699 129.455 53.4564 128.991 51.9318 128.062C50.4167 127.125 49.2472 125.818 48.4233 124.142C47.6089 122.456 47.2017 120.496 47.2017 118.261C47.2017 116.027 47.6089 114.057 48.4233 112.352C49.2472 110.638 50.393 109.303 51.8608 108.347C53.3381 107.381 55.0616 106.898 57.0312 106.898C58.1676 106.898 59.2898 107.087 60.3977 107.466C61.5057 107.845 62.5142 108.46 63.4233 109.312C64.3324 110.155 65.0568 111.273 65.5966 112.665C66.1364 114.057 66.4062 115.771 66.4062 117.807V119.227H49.5881V116.33H62.9972C62.9972 115.098 62.7509 114 62.2585 113.034C61.7756 112.068 61.0843 111.306 60.1847 110.747C59.2945 110.188 58.2434 109.909 57.0312 109.909C55.696 109.909 54.5407 110.241 53.5653 110.903C52.5994 111.557 51.8561 112.409 51.3352 113.46C50.8144 114.511 50.554 115.638 50.554 116.841V118.773C50.554 120.42 50.8381 121.817 51.4062 122.963C51.9839 124.099 52.7841 124.966 53.8068 125.562C54.8295 126.15 56.018 126.443 57.3722 126.443C58.2528 126.443 59.0483 126.32 59.7585 126.074C60.4782 125.818 61.0985 125.439 61.6193 124.938C62.1402 124.426 62.5426 123.792 62.8267 123.034L66.0653 123.943C65.7244 125.042 65.1515 126.008 64.3466 126.841C63.5417 127.665 62.5473 128.309 61.3636 128.773C60.1799 129.227 58.8494 129.455 57.3722 129.455ZM80.9943 107.182V110.023H69.6875V107.182H80.9943ZM72.983 101.955H76.3352V122.75C76.3352 123.697 76.4725 124.407 76.7472 124.881C77.0313 125.345 77.3911 125.657 77.8267 125.818C78.2718 125.97 78.7405 126.045 79.233 126.045C79.6023 126.045 79.9053 126.027 80.142 125.989C80.3788 125.941 80.5682 125.903 80.7102 125.875L81.392 128.886C81.1648 128.972 80.8475 129.057 80.4403 129.142C80.0331 129.237 79.517 129.284 78.892 129.284C77.9451 129.284 77.017 129.08 76.108 128.673C75.2083 128.266 74.4602 127.646 73.8636 126.812C73.2765 125.979 72.983 124.928 72.983 123.659V101.955Z" fill="#FFF"/>
<path d="M69.9248 0.00167466C60.6863 0.92564 55.4409 9.69084 54.7734 17.3042C53.6821 24.0724 57.0964 32.7089 65.3112 34.2652C72.4301 34.8147 78.0938 29.0269 80.4204 23.5059C83.1679 16.5954 83.2482 7.36685 76.5814 2.18967C74.7296 0.800869 72.3518 -0.0427847 69.9248 0.00167466ZM32.2402 0.364034C24.553 0.845264 20.613 8.57616 21.1477 14.7818C21.213 23.0793 26.4785 32.4116 36.0805 34.3813C43.2413 35.0515 48.0157 28.4792 48.4606 22.7325C49.3744 13.9379 44.8717 3.28412 34.675 0.628833C33.8824 0.439415 33.0605 0.345404 32.2402 0.364034ZM94.0089 27.0111C83.6953 27.6653 77.1731 37.1772 76.7249 45.7723C76.1822 51.37 80.3611 58.4094 87.3974 58.0236C97.9204 57.0583 104.265 46.9088 104.003 38.0904C103.936 33.0135 100.218 27.2227 94.0089 27.0111ZM0.0799027 38.6141C-0.875047 48.1381 6.82615 58.9028 18.0135 59.5024C24.7941 59.1106 27.9915 52.2954 27.2143 46.9035C26.5951 38.9478 20.4483 30.801 12.4619 29.7367C4.47563 28.6724 -0.0467244 33.5551 0.0799027 38.6141ZM53.1839 46.7386C42.6955 46.7598 33.1061 52.6945 27.9794 60.7242C23.6839 66.7248 20.1723 73.5181 19.5044 80.6871C19.6506 86.216 25.7465 90.8175 31.8591 89.7163C40.5779 88.7369 48.369 83.4971 57.4354 84.4789C64.9701 84.9994 71.184 90.0556 78.7914 89.9821C86.178 90.2221 90.4391 82.8969 87.6221 77.1595C84.5909 68.9444 78.7139 61.7998 72.4061 55.3651C67.3743 50.622 60.7839 46.5287 53.1839 46.7386Z" fill="#FFF"/>
</svg>
